<svg xmlns="http://www.w3.org/2000/svg" viewBox="0 0 372.5 99.286"><g id="svgGroup" stroke-linecap="round" fill-rule="nonzero" font-size="9pt" stroke="#000000" stroke-width="0.1mm" fill="#08bbfc" style="stroke:#000000;stroke-width:0.1mm;fill:#08bbfc"><path d="M 311.9 76.643 A 13.002 13.002 0 0 1 311.561 79.518 Q 311.263 80.837 310.7 82.243 Q 309.5 85.243 307.5 87.793 Q 305.5 90.343 303.2 91.643 L 294.6 96.643 A 10.443 10.443 0 0 1 293.26 97.294 Q 290.589 98.348 288.5 97.143 L 279.8 92.143 A 4.877 4.877 0 0 1 277.536 89.195 Q 277.2 88.08 277.2 86.643 L 277.2 42.643 L 285.9 47.643 L 277.2 42.643 L 285.9 37.643 L 294.6 42.643 L 285.9 47.643 L 285.9 91.643 L 285.9 47.643 L 294.6 42.643 L 294.6 86.643 L 311.9 76.643 L 311.9 32.643 L 320.5 27.643 L 320.5 81.643 L 311.9 86.643 L 311.9 76.643 L 303.2 71.643 L 303.2 81.643 L 311.9 86.643 L 311.9 76.643 L 311.9 32.643 L 320.5 27.643 L 311.9 22.643 L 303.2 27.643 L 311.9 32.643 L 303.2 27.643 L 303.2 71.643 L 311.9 76.643 L 303.2 71.643 L 285.9 81.643 L 294.6 86.643 L 311.9 76.643 Z M 255.6 12.643 L 246.9 17.643 L 246.9 91.643 L 246.9 17.643 L 238.2 12.643 L 238.2 86.643 Q 238.2 88.08 238.536 89.195 A 4.877 4.877 0 0 0 240.8 92.143 L 249.5 97.143 Q 251.589 98.348 254.26 97.294 A 10.443 10.443 0 0 0 255.6 96.643 L 268.5 89.143 L 268.5 79.143 L 255.6 86.643 L 255.6 12.643 Z M 220.9 60.143 L 207.9 67.643 A 9.851 9.851 0 0 1 206.537 68.317 Q 205.353 68.786 204.276 68.786 A 4.678 4.678 0 0 1 201.9 68.143 L 193.2 63.143 A 4.877 4.877 0 0 1 190.936 60.195 Q 190.6 59.08 190.6 57.643 L 199.3 62.643 L 199.3 92.643 L 190.6 97.643 L 190.6 23.643 L 220.9 6.143 L 190.6 23.643 L 181.9 18.643 L 212.2 1.143 A 10.443 10.443 0 0 1 213.54 0.492 Q 216.211 -0.562 218.3 0.643 L 227 5.643 A 4.957 4.957 0 0 0 224.557 5 Q 222.843 5 220.9 6.143 Q 224.3 4.143 226.95 5.643 A 4.925 4.925 0 0 1 229.301 8.738 Q 229.6 9.799 229.6 11.143 L 229.6 45.143 A 12.499 12.499 0 0 1 229.25 48.007 Q 228.958 49.248 228.422 50.567 A 20.878 20.878 0 0 1 228.35 50.743 Q 227.1 53.743 225.15 56.293 A 16.842 16.842 0 0 1 223.245 58.409 A 12.458 12.458 0 0 1 220.9 60.143 Z M 199.3 62.643 L 220.9 50.143 L 220.9 16.143 L 199.3 28.643 L 199.3 62.643 Z M 220.9 50.143 L 212.2 45.143 L 212.2 11.143 L 220.9 16.143 L 220.9 50.143 Z M 190.6 57.643 L 212.2 45.143 L 220.9 50.143 L 199.3 62.643 L 190.6 57.643 Z M 190.6 97.643 L 181.9 92.643 L 181.9 18.643 L 190.6 23.643 L 190.6 97.643 Z M 130 88.143 L 121.3 83.143 L 138.6 73.143 L 147.3 78.143 L 130 88.143 Z M 255.6 86.643 L 246.9 81.643 L 259.9 74.143 L 268.5 79.143 L 255.6 86.643 Z M 121.636 95.695 Q 121.3 94.58 121.3 93.143 Q 121.3 95.667 122.335 97.196 A 4.695 4.695 0 0 0 123.9 98.643 A 4.877 4.877 0 0 1 121.636 95.695 Z M 246.9 91.643 Q 246.9 94.167 247.935 95.696 A 4.695 4.695 0 0 0 249.5 97.143 A 4.877 4.877 0 0 1 247.236 94.195 Q 246.9 93.08 246.9 91.643 Z M 286.236 94.195 A 4.877 4.877 0 0 0 288.5 97.143 A 4.695 4.695 0 0 1 286.935 95.696 Q 285.9 94.167 285.9 91.643 Q 285.9 93.08 286.236 94.195 Z M 65 43.643 A 13.624 13.624 0 0 1 65.457 40.215 A 17.701 17.701 0 0 1 66.2 37.993 Q 67.4 35.043 69.4 32.493 Q 71.4 29.943 73.7 28.643 L 82.3 23.643 A 10.443 10.443 0 0 1 83.64 22.992 Q 86.311 21.938 88.4 23.143 L 97 28.143 Q 94.647 26.785 91.638 28.295 A 10.907 10.907 0 0 0 91 28.643 A 9.851 9.851 0 0 1 92.363 27.969 Q 93.547 27.5 94.624 27.5 A 4.678 4.678 0 0 1 97 28.143 A 4.877 4.877 0 0 1 99.264 31.091 Q 99.6 32.205 99.6 33.643 L 99.6 77.643 L 91 82.643 L 91 38.643 L 73.7 48.643 L 73.7 38.643 L 65 43.643 L 65 97.643 L 73.7 92.643 L 73.7 48.643 L 65 43.643 L 56.3 38.643 L 56.3 92.643 L 65 97.643 L 65 43.643 L 73.7 48.643 Q 73.7 45.943 74.9 42.993 Q 76.1 40.043 78.05 37.493 Q 80 34.943 82.3 33.643 L 91 28.643 L 82.3 33.643 L 82.3 77.643 L 91 82.643 L 91 38.643 L 82.3 33.643 Q 80 34.943 78.05 37.493 Q 76.1 40.043 74.9 42.993 Q 73.7 45.943 73.7 48.643 M 121.3 45.143 A 13.624 13.624 0 0 1 121.757 41.715 A 17.701 17.701 0 0 1 122.5 39.493 Q 123.7 36.543 125.7 33.993 Q 127.7 31.443 130 30.143 L 121.3 35.143 L 112.7 30.143 L 121.3 25.143 L 130 30.143 L 138.6 25.143 L 147.3 30.143 L 138.6 35.143 L 147.3 30.143 L 147.3 40.143 L 130 50.143 L 130 30.143 L 121.3 35.143 L 121.3 45.143 L 112.7 50.143 L 112.7 60.143 L 121.3 55.143 L 121.3 93.143 L 121.3 55.143 L 112.7 50.143 L 121.3 45.143 L 130 50.143 L 130 88.143 L 147.3 78.143 L 147.3 88.143 L 130 98.143 A 10.443 10.443 0 0 1 128.66 98.794 Q 125.989 99.848 123.9 98.643 L 115.3 93.643 A 5.175 5.175 0 0 1 115.26 93.619 Q 112.7 92.112 112.7 88.143 L 112.7 50.143 L 121.3 55.143 M 39 6.143 Q 42.4 4.143 45.05 5.643 A 4.925 4.925 0 0 1 47.401 8.738 Q 47.7 9.799 47.7 11.143 L 47.7 75.143 L 39 80.143 L 39 60.143 L 17.4 72.643 L 17.4 92.643 L 8.7 97.643 L 8.7 33.643 L 8.7 97.643 L 0 92.643 L 0 28.643 A 13.624 13.624 0 0 1 0.457 25.215 A 17.701 17.701 0 0 1 1.2 22.993 Q 2.4 20.043 4.4 17.493 Q 6.4 14.943 8.7 13.643 L 30.3 1.143 A 10.443 10.443 0 0 1 31.64 0.492 Q 34.311 -0.562 36.4 0.643 L 45.1 5.643 A 4.957 4.957 0 0 0 42.657 5 Q 40.943 5 39 6.143 Z M 17.4 62.643 L 39 50.143 L 39 16.143 L 17.4 28.643 L 17.4 62.643 Z M 39 50.143 L 30.3 45.143 L 30.3 11.143 L 39 16.143 L 39 50.143 Z M 30.3 45.143 L 39 50.143 L 17.4 62.643 L 8.7 57.643 L 30.3 45.143 Z M 17.4 18.643 L 39 6.143 L 17.4 18.643 Z M 363.9 22.643 L 372.5 27.643 L 346.6 42.643 L 372.5 27.643 L 363.9 22.643 L 337.9 37.643 Q 335.6 38.943 333.6 41.493 Q 331.6 44.043 330.4 46.993 A 17.701 17.701 0 0 0 329.657 49.215 A 13.624 13.624 0 0 0 329.2 52.643 L 329.2 62.643 Q 329.2 64.08 329.536 65.195 A 4.877 4.877 0 0 0 331.8 68.143 L 340.5 73.143 Q 342.589 74.348 345.26 73.294 A 10.443 10.443 0 0 0 346.6 72.643 L 363.9 62.643 L 363.9 72.643 L 337.9 87.643 L 337.9 97.643 L 363.9 82.643 A 12.458 12.458 0 0 0 366.245 80.909 A 16.842 16.842 0 0 0 368.15 78.793 Q 370.1 76.243 371.3 73.243 Q 371.863 71.837 372.161 70.518 A 13.002 13.002 0 0 0 372.5 67.643 L 372.5 57.643 Q 372.5 56.205 372.164 55.091 A 4.877 4.877 0 0 0 369.9 52.143 A 4.678 4.678 0 0 0 367.524 51.5 Q 366.447 51.5 365.263 51.969 A 9.851 9.851 0 0 0 363.9 52.643 A 10.907 10.907 0 0 1 364.538 52.295 Q 367.547 50.785 369.9 52.143 L 361.3 47.143 Q 359.211 45.938 356.54 46.992 A 10.443 10.443 0 0 0 355.2 47.643 L 337.9 57.643 L 337.9 67.643 L 337.9 57.643 L 355.2 47.643 M 337.9 97.643 L 329.2 92.643 L 329.2 82.643 L 337.9 87.643 L 329.2 82.643 L 355.2 67.643 L 363.9 72.643 L 355.2 67.643 L 355.2 57.643 L 363.9 62.643 L 363.9 72.643 L 337.9 87.643 L 337.9 97.643 Z M 238.2 86.643 L 238.2 12.643 L 246.9 17.643 L 246.9 91.643 M 372.5 27.643 L 372.5 37.643 L 346.6 52.643 L 346.6 62.643 L 363.9 52.643 L 346.6 62.643 L 337.9 57.643 M 112.7 50.143 L 121.3 45.143 L 121.3 35.143 L 112.7 30.143 L 112.7 40.143 L 121.3 45.143 L 112.7 40.143 L 112.7 30.143 M 112.7 50.143 L 104 45.143 L 112.7 50.143 L 112.7 60.143 L 104 55.143 L 104 45.143 L 112.7 50.143 Z M 39 80.143 L 30.3 75.143 L 30.3 55.143 L 39 60.143 L 39 80.143 Z M 65 43.643 L 56.3 38.643 L 65 33.643 L 73.7 38.643 L 65 43.643 Z M 246.9 17.643 L 255.6 12.643 L 246.9 7.643 L 238.2 12.643 M 17.4 18.643 Q 15.1 19.943 13.1 22.493 Q 11.1 25.043 9.9 27.993 Q 8.7 30.943 8.7 33.643 M 346.6 42.643 Q 344.3 43.943 342.3 46.493 Q 340.3 49.043 339.1 51.993 Q 337.9 54.943 337.9 57.643 M 138.6 35.143 Q 136.3 36.443 134.35 38.993 Q 132.4 41.543 131.2 44.493 Q 130 47.443 130 50.143 M 204.276 68.786 A 4.678 4.678 0 0 1 201.9 68.143 A 4.695 4.695 0 0 1 200.335 66.696 Q 199.3 65.167 199.3 62.643 Q 199.3 66.612 201.86 68.119 A 5.175 5.175 0 0 0 201.9 68.143 M 337.9 67.643 Q 337.9 70.167 338.935 71.696 A 4.695 4.695 0 0 0 340.5 73.143 A 4.877 4.877 0 0 1 338.236 70.195 Q 337.9 69.08 337.9 67.643 Z M 8.7 33.643 A 13.624 13.624 0 0 1 9.157 30.215 A 17.701 17.701 0 0 1 9.9 27.993 M 73.7 48.643 A 13.624 13.624 0 0 1 74.157 45.215 A 17.701 17.701 0 0 1 74.9 42.993 M 337.9 57.643 A 13.624 13.624 0 0 1 338.357 54.215 A 17.701 17.701 0 0 1 339.1 51.993 M 130 50.143 A 13.624 13.624 0 0 1 130.457 46.715 A 17.701 17.701 0 0 1 131.2 44.493 M 342.3 46.493 A 17.71 17.71 0 0 1 344.174 44.439 A 12.908 12.908 0 0 1 346.6 42.643 M 13.1 22.493 A 17.71 17.71 0 0 1 14.974 20.439 A 12.908 12.908 0 0 1 17.4 18.643 M 78.05 37.493 A 16.842 16.842 0 0 1 79.955 35.377 A 12.458 12.458 0 0 1 82.3 33.643 M 134.35 38.993 A 16.842 16.842 0 0 1 136.255 36.877 A 12.458 12.458 0 0 1 138.6 35.143 M 9.9 27.993 Q 8.7 30.943 8.7 33.643 M 13.1 22.493 Q 11.1 25.043 9.9 27.993 M 131.2 44.493 Q 130 47.443 130 50.143 M 134.35 38.993 Q 132.4 41.543 131.2 44.493 M 339.1 51.993 Q 337.9 54.943 337.9 57.643 M 342.3 46.493 Q 340.3 49.043 339.1 51.993"/></g></svg>
