<svg width="871.603" height="200" viewBox="0 0 871.603 169" xmlns="http://www.w3.org/2000/svg"><g id="svgGroup" stroke-linecap="round" fill-rule="evenodd" font-size="9pt" stroke="#000" stroke-width="0.25mm" fill="#000" style="stroke:#000;stroke-width:0.25mm;fill:#000"><path d="M 720.2 164.8 L 713 161.4 A 12.831 12.831 0 0 1 711.287 162.691 Q 709.409 163.894 706.566 165.019 A 45.297 45.297 0 0 1 706.1 165.2 A 34.884 34.884 0 0 1 697.339 167.278 A 39.692 39.692 0 0 1 696 167.4 A 10.098 10.098 0 0 1 694.812 167.562 A 12.91 12.91 0 0 1 693.8 167.6 L 691.6 167.6 A 65.415 65.415 0 0 1 677.37 165.992 A 73.425 73.425 0 0 1 675.3 165.5 Q 667 163.4 660 158.9 Q 653 154.4 648.7 147.1 A 30.434 30.434 0 0 1 645.03 136.984 A 41.418 41.418 0 0 1 644.4 129.6 L 644.4 47.8 L 677 45 L 695 53.8 L 695 120.4 Q 695.689 119.711 696.33 119.355 A 3.365 3.365 0 0 1 696.9 119.1 A 2.072 2.072 0 0 0 697.561 118.72 Q 698.046 118.319 698.5 117.57 A 7.798 7.798 0 0 0 698.6 117.4 L 698.6 45 L 731 42.2 L 751 52.2 L 751 162.2 L 720.2 164.8 Z M 107 163.4 L 87 153.4 L 79.6 129.6 L 63.8 131 L 54 166 L 20 169 L 0 159 L 43.8 2.8 L 76.8 0 L 96.8 10 L 141.4 160.6 L 107 163.4 Z M 221 164.8 L 201 155 L 201 92.4 Q 198.6 94.8 198 98 L 198 164.4 L 167.8 167.4 L 147.8 157.4 L 147.8 47.6 L 178.4 44.8 L 184.8 50 Q 188.2 47.2 192.2 44.9 Q 196.2 42.6 201.8 42.2 Q 202.8 42.2 203.6 42.1 Q 204.4 42 205.2 42 Q 214.2 42 222.9 45.2 Q 231.6 48.4 238.5 54.1 Q 245.4 59.8 249.5 67.4 Q 253.6 75 253.6 83.8 L 253.6 162 L 221 164.8 Z M 231.6 150.2 L 231.6 70.6 A 40.083 40.083 0 0 0 230.939 63.058 Q 229.373 54.9 224.1 50.4 A 26.569 26.569 0 0 0 209.278 44.189 A 34.951 34.951 0 0 0 205.6 44 L 203.9 44 Q 203 44 202 44.2 Q 192.2 45 185.4 51.7 A 30.007 30.007 0 0 0 179.101 60.521 A 27.729 27.729 0 0 0 177 67.2 L 176.4 67.2 L 176.4 47 L 149.8 49.4 L 149.8 155.4 L 178.4 152.8 L 178.4 87.8 Q 179.4 83 182.9 79 A 13.483 13.483 0 0 1 191.652 74.441 A 17.352 17.352 0 0 1 192 74.4 L 192.8 74.4 Q 197 74.4 200 77.3 A 8.554 8.554 0 0 1 201.997 80.405 Q 202.53 81.775 202.78 83.495 A 23.06 23.06 0 0 1 203 86.8 L 203 152.8 L 231.6 150.2 Z M 729 44.4 L 700.6 46.8 L 700.6 117.8 A 17.342 17.342 0 0 1 697.053 122.488 A 16.173 16.173 0 0 1 695.3 123.9 Q 692 126.2 686.4 126.8 L 685.4 126.8 Q 681.2 126.8 678.1 124 Q 675 121.2 675 114.4 L 675 47.2 L 646.4 49.6 L 646.4 129.6 Q 646.4 143.4 654 149.6 Q 661.6 155.8 672.8 155.8 L 676.6 155.8 Q 686.2 154.8 693.1 149.7 Q 700 144.6 701.6 137.2 L 702.2 137.4 L 702.2 152.8 L 729 150.4 L 729 44.4 Z M 808.2 129.8 L 806.8 129.8 Q 800.2 129.8 795.3 125.4 Q 790.4 121 788.2 114.8 L 765.6 128.8 A 46.938 46.938 0 0 0 772.407 142.351 Q 781.135 154.036 796.772 155.862 A 51.979 51.979 0 0 0 802.8 156.2 L 805.7 156.2 A 20.602 20.602 0 0 0 808.425 156.024 A 18.946 18.946 0 0 0 808.6 156 A 76.105 76.105 0 0 0 820.364 154.209 Q 832.219 151.369 839.3 144.7 A 32.177 32.177 0 0 0 849.089 125.571 A 45.831 45.831 0 0 0 849.6 118.6 Q 849.6 109.263 846.615 102.994 A 21.053 21.053 0 0 0 842.5 97.1 A 25.657 25.657 0 0 0 836.522 92.77 Q 829.42 88.925 817.6 86.8 L 807.2 85 A 69.548 69.548 0 0 1 804.05 84.346 Q 800.831 83.594 798.7 82.7 Q 795.6 81.4 795.6 77.8 L 795.6 77.2 A 7.35 7.35 0 0 1 797.812 72.81 A 10.4 10.4 0 0 1 799 71.8 A 10.831 10.831 0 0 1 801.64 70.415 Q 804.146 69.482 807.765 69.216 A 35.735 35.735 0 0 1 808 69.2 L 809.6 69.2 Q 815.4 69.2 819.7 72.7 A 16.441 16.441 0 0 1 825.164 81.108 A 20.575 20.575 0 0 1 825.4 82 L 847.6 71.4 A 38.797 38.797 0 0 0 844.323 61.673 A 29.74 29.74 0 0 0 836.2 51.6 A 31 31 0 0 0 823.94 45.778 Q 819.408 44.692 814.104 44.607 A 56.57 56.57 0 0 0 813.2 44.6 L 810.5 44.6 Q 809.2 44.6 807.8 44.8 Q 796 45.8 787.3 51 A 39.852 39.852 0 0 0 778.81 57.704 A 34.259 34.259 0 0 0 774 64.1 Q 769.4 72 769.4 81.6 Q 769.4 91.042 772.875 97.256 A 20.591 20.591 0 0 0 776.4 101.9 Q 783.4 108.8 798.6 111 L 810 112.6 A 33.04 33.04 0 0 1 813.323 113.177 Q 816.789 113.977 818.822 115.432 A 8.637 8.637 0 0 1 819.3 115.8 A 8.701 8.701 0 0 1 821.095 117.784 A 6.907 6.907 0 0 1 822.2 121.6 A 6.658 6.658 0 0 1 821.681 124.279 Q 821.017 125.807 819.504 126.861 A 8.414 8.414 0 0 1 818.8 127.3 A 14.031 14.031 0 0 1 816.304 128.361 Q 813.15 129.388 808.2 129.8 Z M 75.2 2.2 L 45.4 4.8 L 3 156.6 L 32.2 154.2 L 42.2 119.2 L 77.8 116 L 88.4 151.4 L 118.6 148.8 L 75.2 2.2 Z M 455.8 167.8 L 435.8 157.8 L 435.8 5.8 L 487.6 1.2 A 14.679 14.679 0 0 1 489.203 1.02 A 12.64 12.64 0 0 1 489.9 1 L 492.2 1 Q 500.2 1 507.6 3.4 A 127.788 127.788 0 0 1 516.67 6.744 A 159.974 159.974 0 0 1 523.2 9.6 Q 538.6 16.4 546.6 27.9 A 42.123 42.123 0 0 1 552.723 41.594 Q 554.6 48.888 554.6 57.8 Q 554.6 83 541.8 97.8 A 47.288 47.288 0 0 1 514.609 113.333 A 64.647 64.647 0 0 1 507 114.4 L 490.2 115.8 L 490.2 164.8 L 455.8 167.8 Z M 356.8 132.4 L 350.4 165.2 A 344.703 344.703 0 0 0 342.58 165.627 A 311.981 311.981 0 0 0 341.5 165.7 A 121.888 121.888 0 0 1 334.711 165.989 A 108.941 108.941 0 0 1 333.2 166 Q 306.367 166 292.746 156.716 A 34.929 34.929 0 0 1 291.2 155.6 Q 277.6 145.2 277.6 121.4 L 277.6 83.2 L 264.8 76.8 L 264.8 46.6 L 277.6 45.6 L 277.6 13 L 310 10 L 330 20 L 330 43 L 346.6 51.2 L 346.6 81.4 L 330 82.8 L 330 123 L 336.8 122.4 L 356.8 132.4 Z M 468.2 104 L 486.8 102.4 A 56.724 56.724 0 0 0 502.531 98.928 A 43.881 43.881 0 0 0 520.4 86.3 Q 531.87 72.856 532.556 50.662 A 92.556 92.556 0 0 0 532.6 47.8 Q 532.6 34.4 527.8 24.4 Q 523 14.4 514.1 8.7 A 35.503 35.503 0 0 0 501.002 3.704 A 48.085 48.085 0 0 0 492.6 3 L 490.2 3 Q 489 3 487.8 3.2 L 437.8 7.6 L 437.8 155.8 L 468.2 153.2 L 468.2 104 Z M 870 82.4 L 845.2 94.2 A 65.847 65.847 0 0 1 856.172 100.926 A 52.096 52.096 0 0 1 864.3 108.6 Q 871.6 117.2 871.6 128.6 A 43.789 43.789 0 0 1 869.967 140.859 A 33.488 33.488 0 0 1 860.9 155.9 A 37.809 37.809 0 0 1 849.006 163.489 Q 843.692 165.693 837.127 166.904 A 85.381 85.381 0 0 1 828.8 168 Q 827 168.2 825.2 168.3 Q 823.4 168.4 821.6 168.4 A 72.178 72.178 0 0 1 803.319 166.183 A 56.922 56.922 0 0 1 784.7 157.6 A 57.461 57.461 0 0 1 763.848 130.179 A 71.088 71.088 0 0 1 763 127.8 L 788.6 112.2 Q 778.2 107.4 772.8 100.3 A 25.706 25.706 0 0 1 768.191 90.05 A 36.921 36.921 0 0 1 767.4 82.2 L 767.4 81.6 Q 767.6 71.6 772.4 63.2 A 37.899 37.899 0 0 1 783.49 51.09 A 45.634 45.634 0 0 1 786.2 49.3 A 43.559 43.559 0 0 1 798.778 44.183 A 57.081 57.081 0 0 1 807.6 42.8 A 25.423 25.423 0 0 1 810.229 42.605 A 22.858 22.858 0 0 1 810.7 42.6 L 813.6 42.6 Q 822.8 42.6 832.2 45.1 Q 841.6 47.6 849.8 52.5 Q 858 57.4 863.4 64.9 Q 868.8 72.4 870 82.4 Z M 328.6 153.4 L 334.2 124.8 L 326.5 125.5 Q 323.2 125.8 320.4 125.8 Q 312.063 125.8 310.03 122.845 A 3.734 3.734 0 0 1 310 122.8 Q 308.357 120.336 308.064 114.902 A 46.513 46.513 0 0 1 308 112.4 L 308 71 L 324.6 69.6 L 324.6 43.4 L 308 44.8 L 308 12.2 L 279.6 14.8 L 279.6 47.4 L 266.8 48.4 L 266.8 74.6 L 279.6 73.6 L 279.6 121.4 A 78.492 78.492 0 0 0 279.923 128.758 Q 280.584 135.763 282.6 140.6 Q 285.6 147.8 292.9 151 Q 300.05 154.134 312.667 154.199 A 104.199 104.199 0 0 0 313.2 154.2 A 130.235 130.235 0 0 0 318.064 154.105 A 154.016 154.016 0 0 0 320.4 154 Q 324.2 153.8 328.6 153.4 Z M 591.4 165 L 571.4 155.2 L 571.4 3.2 L 604.8 0.4 L 624.8 10.4 L 624.8 162.4 L 591.4 165 Z M 602.8 2.6 L 573.4 5 L 573.4 153 L 602.8 150.6 L 602.8 2.6 Z M 468.2 75.4 L 468.2 33.8 L 481.8 32.6 A 11.387 11.387 0 0 0 482.761 32.561 A 9.462 9.462 0 0 0 483.3 32.5 A 10.283 10.283 0 0 1 484.056 32.419 A 8.032 8.032 0 0 1 484.6 32.4 A 20.578 20.578 0 0 1 489.518 32.955 A 14.159 14.159 0 0 1 496.3 36.7 Q 500.6 41 500.6 51.6 Q 500.6 62.6 495.2 68 Q 489.8 73.4 481.8 74.2 L 468.2 75.4 Z M 70.8 88 L 49.2 90 A 337.409 337.409 0 0 0 53.442 74.969 A 280.631 280.631 0 0 0 55.5 66.4 Q 58 55.2 59.8 44 L 60.6 44 Q 62.2 55 64.7 65.5 Q 67.2 76 70.8 88 Z M 490.2 45.6 L 490.2 69.6 Q 494.2 66.8 496.4 62.6 Q 498.123 59.311 498.497 54.426 A 37.095 37.095 0 0 0 498.6 51.6 Q 498.6 47.4 498 45 L 490.2 45.6 Z M 796.2 115.4 L 809.2 121.8 Q 809.8 123.2 810.4 124.7 A 15.575 15.575 0 0 0 811.274 126.54 A 13.163 13.163 0 0 0 811.8 127.4 Q 816.695 126.72 818.724 125.023 A 3.885 3.885 0 0 0 820 123.2 L 819.3 122.4 Q 818.6 121.6 817.8 121.4 Q 811.6 119.8 806.2 118.4 Q 800.8 117 796.2 115.4 Z M 824 84.8 L 823.2 80.8 A 2.738 2.738 0 0 0 822.825 80.708 Q 822.228 80.6 821.2 80.6 Q 818.6 80.6 816.4 82 Q 814.2 83.4 813.6 84.4 Q 818.8 85.2 823.7 86.5 A 111.498 111.498 0 0 1 831.332 88.811 A 98.984 98.984 0 0 1 833 89.4 L 824 84.8 Z" vector-effect="non-scaling-stroke"/></g></svg>
